<svg width="250" height="258" viewBox="0 0 250 258" fill="none" xmlns="http://www.w3.org/2000/svg">
<path d="M85.9375 15.6363C85.9375 9.13747 80.7129 3.90906 74.2188 3.90906C67.7246 3.90906 62.5 9.13747 62.5 15.6363V35.1818C45.2637 35.1818 31.25 49.2056 31.25 66.4545H11.7188C5.22461 66.4545 0 71.6829 0 78.1818C0 84.6806 5.22461 89.9091 11.7188 89.9091H31.25V117.273H11.7188C5.22461 117.273 0 122.501 0 129C0 135.499 5.22461 140.727 11.7188 140.727H31.25V168.091H11.7188C5.22461 168.091 0 173.319 0 179.818C0 186.317 5.22461 191.545 11.7188 191.545H31.25C31.25 208.794 45.2637 222.818 62.5 222.818V242.364C62.5 248.862 67.7246 254.091 74.2188 254.091C80.7129 254.091 85.9375 248.862 85.9375 242.364V222.818H113.281V242.364C113.281 248.862 118.506 254.091 125 254.091C131.494 254.091 136.719 248.862 136.719 242.364V222.818H164.062V242.364C164.062 248.862 169.287 254.091 175.781 254.091C182.275 254.091 187.5 248.862 187.5 242.364V222.818C204.736 222.818 218.75 208.794 218.75 191.545H238.281C244.775 191.545 250 186.317 250 179.818C250 173.319 244.775 168.091 238.281 168.091H218.75V140.727H238.281C244.775 140.727 250 135.499 250 129C250 122.501 244.775 117.273 238.281 117.273H218.75V89.9091H238.281C244.775 89.9091 250 84.6806 250 78.1818C250 71.6829 244.775 66.4545 238.281 66.4545H218.75C218.75 49.2056 204.736 35.1818 187.5 35.1818V15.6363C187.5 9.13747 182.275 3.90906 175.781 3.90906C169.287 3.90906 164.062 9.13747 164.062 15.6363V35.1818H136.719V15.6363C136.719 9.13747 131.494 3.90906 125 3.90906C118.506 3.90906 113.281 9.13747 113.281 15.6363V35.1818H85.9375V15.6363ZM78.125 66.4545H171.875C180.518 66.4545 187.5 73.442 187.5 82.0909V175.909C187.5 184.558 180.518 191.545 171.875 191.545H78.125C69.4824 191.545 62.5 184.558 62.5 175.909V82.0909C62.5 73.442 69.4824 66.4545 78.125 66.4545ZM171.875 82.0909H78.125V175.909H171.875V82.0909Z" fill="#F5F5F5"/>
</svg>
