<svg width="250" height="250" viewBox="0 0 250 250" fill="none" xmlns="http://www.w3.org/2000/svg">
<path d="M62.5 50C62.5 36.2109 73.7109 25 87.5 25H225C238.789 25 250 36.2109 250 50V162.5C250 176.289 238.789 187.5 225 187.5H131.563C126.953 177.539 119.883 168.945 111.094 162.5H150V150C150 143.086 155.586 137.5 162.5 137.5H187.5C194.414 137.5 200 143.086 200 150V162.5H225V50H87.5V69.1797C80.1562 64.9219 71.6016 62.5 62.5 62.5V50ZM62.5 75C67.4246 75 72.3009 75.97 76.8506 77.8545C81.4003 79.7391 85.5343 82.5013 89.0165 85.9835C92.4987 89.4657 95.2609 93.5997 97.1455 98.1494C99.03 102.699 100 107.575 100 112.5C100 117.425 99.03 122.301 97.1455 126.851C95.2609 131.4 92.4987 135.534 89.0165 139.017C85.5343 142.499 81.4003 145.261 76.8506 147.145C72.3009 149.03 67.4246 150 62.5 150C57.5754 150 52.6991 149.03 48.1494 147.145C43.5997 145.261 39.4657 142.499 35.9835 139.017C32.5013 135.534 29.7391 131.4 27.8545 126.851C25.97 122.301 25 117.425 25 112.5C25 107.575 25.97 102.699 27.8545 98.1494C29.7391 93.5997 32.5013 89.4657 35.9835 85.9835C39.4657 82.5013 43.5997 79.7391 48.1494 77.8545C52.6991 75.97 57.5754 75 62.5 75ZM52.0703 162.5H72.8906C101.68 162.5 125 185.82 125 214.57C125 220.312 120.352 225 114.57 225H10.4297C4.64844 225 0 220.352 0 214.57C0 185.82 23.3203 162.5 52.0703 162.5Z" fill="#F5F5F5"/>
</svg>
