<svg width="250" height="250" viewBox="0 0 250 250" fill="none" xmlns="http://www.w3.org/2000/svg">
<mask id="mask0_14_358" style="mask-type:alpha" maskUnits="userSpaceOnUse" x="0" y="0" width="250" height="250">
<rect width="250" height="250" fill="#D9D9D9"/>
</mask>
<g mask="url(#mask0_14_358)">
<path d="M62.0314 219.458C58.9272 219.458 56.3066 218.39 54.1694 216.253C52.0323 214.114 50.9637 211.493 50.9637 208.391V197.951H33.2892C27.0844 197.951 21.8022 195.768 17.4429 191.404C13.0835 187.039 10.9038 181.756 10.9038 175.555V64.2891C10.9038 58.0877 13.0861 52.8047 17.4507 48.4401C21.8153 44.0755 27.0983 41.8932 33.2996 41.8932H216.701C222.902 41.8932 228.185 44.0755 232.55 48.4401C236.914 52.8047 239.097 58.0877 239.097 64.2891V175.555C239.097 181.756 236.914 187.039 232.55 191.404C228.185 195.768 222.902 197.951 216.701 197.951H199.037V208.391C199.037 211.493 197.968 214.114 195.831 216.253C193.694 218.39 191.073 219.458 187.969 219.458H62.0314ZM33.2996 175.555H216.701V64.2891H33.2996V175.555ZM53.3856 155.599H196.615L150.107 93.8568L114.896 139.174L89.7866 109.047L53.3856 155.599Z" fill="#F5F5F5"/>
</g>
</svg>
